{"glyphs":{"0":{"ha":897,"x_min":0,"x_max":0,"o":"m 665 29 l 665 1013 l 29 1013 l 29 29 z m 0 0 l 0 1042 l 694 1042 l 694 0 z "},"1":{"ha":347,"x_min":0,"x_max":0,"o":"m 116 0 l 116 1013 l 0 897 l 0 926 l 116 1042 l 144 1042 l 144 0 z "},"2":{"ha":897,"x_min":0,"x_max":0,"o":"m 0 0 l 0 535 l 665 535 l 665 1013 l 0 1013 l 0 1042 l 694 1042 l 694 506 l 29 506 l 29 29 l 694 29 l 694 0 z "},"3":{"ha":897,"x_min":0,"x_max":0,"o":"m 0 0 l 0 29 l 665 29 l 665 506 l 0 506 l 0 535 l 665 535 l 665 1013 l 0 1013 l 0 1042 l 694 1042 l 694 0 z "},"4":{"ha":897,"x_min":0,"x_max":0,"o":"m 665 0 l 665 506 l 0 506 l 0 1042 l 29 1042 l 29 535 l 665 535 l 665 1042 l 694 1042 l 694 0 z "},"5":{"ha":897,"x_min":0,"x_max":0,"o":"m 0 0 l 0 29 l 665 29 l 665 506 l 0 506 l 0 1042 l 694 1042 l 694 1013 l 29 1013 l 29 535 l 694 535 l 694 0 z "},"6":{"ha":897,"x_min":0,"x_max":0,"o":"m 665 29 l 665 506 l 29 506 l 29 29 z m 0 0 l 0 1042 l 29 1042 l 29 535 l 694 535 l 694 0 z "},"7":{"ha":897,"x_min":0,"x_max":0,"o":"m 665 0 l 665 1013 l 0 1013 l 0 1042 l 694 1042 l 694 0 z "},"8":{"ha":897,"x_min":0,"x_max":0,"o":"m 665 29 l 665 506 l 29 506 l 29 29 z m 665 535 l 665 1013 l 29 1013 l 29 535 z m 0 0 l 0 1042 l 694 1042 l 694 0 z "},"9":{"ha":897,"x_min":0,"x_max":0,"o":"m 665 535 l 665 1013 l 29 1013 l 29 535 z m 665 0 l 665 506 l 0 506 l 0 1042 l 694 1042 l 694 0 z "}," ":{"ha":347,"x_min":0,"x_max":0,"o":""},"!":{"ha":578,"x_min":0,"x_max":0,"o":"m 333 -116 l 333 -58 l 362 -58 l 362 -116 z m 333 347 l 333 1042 l 362 1042 l 362 347 z "},"\"":{"ha":665,"x_min":0,"x_max":0,"o":"m 231 926 l 231 1042 l 260 1042 l 260 926 z m 434 926 l 434 1042 l 463 1042 l 463 926 z "},"#":{"ha":897,"x_min":0,"x_max":0,"o":"m 434 347 l 434 694 l 260 694 l 260 347 z m 231 0 l 231 318 l 0 318 l 0 347 l 231 347 l 231 694 l 0 694 l 0 724 l 231 724 l 231 1042 l 260 1042 l 260 724 l 434 724 l 434 1042 l 463 1042 l 463 724 l 694 724 l 694 694 l 463 694 l 463 347 l 694 347 l 694 318 l 463 318 l 463 0 l 434 0 l 434 318 l 260 318 l 260 0 z "},"$":{"ha":897,"x_min":0,"x_max":0,"o":"m 665 116 l 665 506 l 362 506 l 362 116 z m 333 535 l 333 926 l 29 926 l 29 535 z m 333 0 l 333 87 l 0 87 l 0 116 l 333 116 l 333 506 l 0 506 l 0 955 l 333 955 l 333 1042 l 362 1042 l 362 955 l 694 955 l 694 926 l 362 926 l 362 535 l 694 535 l 694 87 l 362 87 l 362 0 z "},"%":{"ha":897,"x_min":0,"x_max":0,"o":"m 665 29 l 665 290 l 521 290 l 521 29 z m 492 0 l 492 318 l 694 318 l 694 0 z m 0 144 l 0 174 l 694 868 l 694 839 l 0 144 z m 174 752 l 174 1013 l 29 1013 l 29 752 z m 0 724 l 0 1042 l 203 1042 l 203 724 z "},"'":{"ha":578,"x_min":0,"x_max":0,"o":"m 333 955 l 333 1042 l 362 1042 l 362 955 z "},"*":{"ha":897,"x_min":0,"x_max":0,"o":"m 333 0 l 333 506 l 0 174 l 0 203 l 333 535 l 0 868 l 0 897 l 333 565 l 333 1042 l 362 1042 l 362 565 l 694 897 l 694 868 l 362 535 l 694 203 l 694 174 l 362 506 l 362 0 z "},"+":{"ha":897,"x_min":0,"x_max":0,"o":"m 333 174 l 333 506 l 0 506 l 0 535 l 333 535 l 333 868 l 362 868 l 362 535 l 694 535 l 694 506 l 362 506 l 362 174 z "},",":{"ha":260,"x_min":0,"x_max":0,"o":"m -29 -58 l 29 0 l 29 58 l 58 58 l 58 0 l 0 -58 z "},"-":{"ha":897,"x_min":0,"x_max":0,"o":"m 0 506 l 0 535 l 694 535 l 694 506 z "},".":{"ha":231,"x_min":0,"x_max":0,"o":"m 0 0 l 0 87 l 29 87 l 29 0 z "},":":{"ha":231,"x_min":0,"x_max":0,"o":"m 0 290 l 0 405 l 29 405 l 29 290 z m 0 637 l 0 752 l 29 752 l 29 637 z "},";":{"ha":260,"x_min":0,"x_max":0,"o":"m -29 -58 l 29 0 l 29 58 l 58 58 l 58 0 l 0 -58 z m 29 637 l 29 752 l 58 752 l 58 637 z "},"=":{"ha":897,"x_min":0,"x_max":0,"o":"m 0 347 l 0 376 l 694 376 l 694 347 z m 0 665 l 0 694 l 694 694 l 694 665 z "},"?":{"ha":897,"x_min":0,"x_max":0,"o":"m 333 0 l 333 58 l 362 58 l 362 0 z m 333 506 l 333 535 l 665 535 l 665 1013 l 0 1013 l 0 1042 l 694 1042 l 694 506 z "},"@":{"ha":897,"x_min":0,"x_max":0,"o":"m 521 174 l 521 868 l 174 868 l 174 174 z m 0 0 l 0 1042 l 694 1042 l 694 144 l 144 144 l 144 897 l 550 897 l 550 174 l 665 174 l 665 1013 l 29 1013 l 29 29 l 694 29 l 694 0 z "},"A":{"ha":897,"x_min":0,"x_max":0,"o":"m 665 376 l 665 694 l 347 1013 l 29 694 l 29 376 z m 0 0 l 0 694 l 347 1042 l 694 694 l 694 0 l 665 0 l 665 347 l 29 347 l 29 0 z "},"B":{"ha":897,"x_min":0,"x_max":0,"o":"m 463 29 l 665 231 l 665 347 l 506 506 l 29 506 l 29 29 z m 506 535 l 665 694 l 665 810 l 463 1013 l 29 1013 l 29 535 z m 0 0 l 0 1042 l 463 1042 l 694 810 l 694 694 l 521 521 l 694 347 l 694 231 l 463 0 z "},"C":{"ha":897,"x_min":0,"x_max":0,"o":"m 0 0 l 0 1042 l 694 1042 l 694 1013 l 29 1013 l 29 29 l 694 29 l 694 0 z "},"D":{"ha":897,"x_min":0,"x_max":0,"o":"m 347 29 l 665 347 l 665 694 l 347 1013 l 29 1013 l 29 29 z m 0 0 l 0 1042 l 347 1042 l 694 694 l 694 347 l 347 0 z "},"E":{"ha":897,"x_min":0,"x_max":0,"o":"m 0 0 l 0 1042 l 694 1042 l 694 1013 l 29 1013 l 29 535 l 521 535 l 521 506 l 29 506 l 29 29 l 694 29 l 694 0 z "},"F":{"ha":897,"x_min":0,"x_max":0,"o":"m 0 0 l 0 1042 l 694 1042 l 694 1013 l 29 1013 l 29 535 l 521 535 l 521 506 l 29 506 l 29 0 z "},"G":{"ha":897,"x_min":0,"x_max":0,"o":"m 0 0 l 0 1042 l 694 1042 l 694 694 l 665 694 l 665 1013 l 29 1013 l 29 29 l 665 29 l 665 318 l 347 318 l 347 347 l 694 347 l 694 0 z "},"H":{"ha":897,"x_min":0,"x_max":0,"o":"m 0 0 l 0 1042 l 29 1042 l 29 535 l 665 535 l 665 1042 l 694 1042 l 694 0 l 665 0 l 665 506 l 29 506 l 29 0 z "},"I":{"ha":897,"x_min":0,"x_max":0,"o":"m 0 0 l 0 29 l 333 29 l 333 1013 l 0 1013 l 0 1042 l 694 1042 l 694 1013 l 362 1013 l 362 29 l 694 29 l 694 0 z "},"J":{"ha":897,"x_min":0,"x_max":0,"o":"m 347 0 l 0 347 l 0 376 l 347 29 l 665 29 l 665 1042 l 694 1042 l 694 0 z "},"K":{"ha":752,"x_min":0,"x_max":0,"o":"m 0 0 l 0 1042 l 29 1042 l 29 550 l 521 1042 l 550 1042 l 29 521 l 550 0 l 521 0 l 29 492 l 29 0 z "},"L":{"ha":897,"x_min":0,"x_max":0,"o":"m 0 0 l 0 1042 l 29 1042 l 29 29 l 694 29 l 694 0 z "},"M":{"ha":897,"x_min":0,"x_max":0,"o":"m 0 0 l 0 1042 l 29 1042 l 347 724 l 665 1042 l 694 1042 l 694 0 l 665 0 l 665 1013 l 347 694 l 29 1013 l 29 0 z "},"N":{"ha":897,"x_min":0,"x_max":0,"o":"m 0 0 l 0 1042 l 29 1042 l 29 868 l 665 231 l 665 1042 l 694 1042 l 694 0 l 665 0 l 665 203 l 29 839 l 29 0 z "},"O":{"ha":897,"x_min":0,"x_max":0,"o":"m 665 29 l 665 1013 l 29 1013 l 29 29 z m 0 0 l 0 1042 l 694 1042 l 694 0 z "},"P":{"ha":897,"x_min":0,"x_max":0,"o":"m 29 391 l 665 709 l 665 1013 l 29 1013 l 29 391 z m 0 0 l 0 1042 l 694 1042 l 694 694 l 29 362 l 29 0 z "},"Q":{"ha":897,"x_min":0,"x_max":0,"o":"m 347 29 l 492 174 l 347 318 l 347 347 l 506 188 l 665 347 l 665 1013 l 29 1013 l 29 29 z m 0 0 l 0 1042 l 694 1042 l 694 347 l 521 174 l 694 0 l 665 0 l 506 159 l 347 0 z "},"R":{"ha":897,"x_min":0,"x_max":0,"o":"m 665 637 l 665 1013 l 29 1013 l 29 637 z m 0 0 l 0 1042 l 694 1042 l 694 608 l 87 608 l 694 0 l 665 0 l 58 608 l 29 608 l 29 0 z "},"S":{"ha":897,"x_min":0,"x_max":0,"o":"m 0 0 l 0 29 l 665 29 l 665 506 l 0 506 l 0 1042 l 694 1042 l 694 1013 l 29 1013 l 29 535 l 694 535 l 694 0 z "},"T":{"ha":897,"x_min":0,"x_max":0,"o":"m 333 0 l 333 1013 l 0 1013 l 0 1042 l 694 1042 l 694 1013 l 362 1013 l 362 0 z "},"U":{"ha":897,"x_min":0,"x_max":0,"o":"m 0 0 l 0 1042 l 29 1042 l 29 29 l 665 29 l 665 1042 l 694 1042 l 694 0 z "},"V":{"ha":897,"x_min":0,"x_max":0,"o":"m 347 0 l 0 694 l 0 1042 l 29 1042 l 29 694 l 347 58 l 665 694 l 665 1042 l 694 1042 l 694 694 l 347 0 z "},"W":{"ha":897,"x_min":0,"x_max":0,"o":"m 0 0 l 0 1042 l 29 1042 l 29 29 l 347 347 l 665 29 l 665 1042 l 694 1042 l 694 0 l 665 0 l 347 318 l 29 0 z "},"X":{"ha":897,"x_min":0,"x_max":0,"o":"m 0 0 l 0 203 l 333 535 l 0 868 l 0 1042 l 29 1042 l 29 868 l 347 550 l 665 868 l 665 1042 l 694 1042 l 694 868 l 362 535 l 694 203 l 694 0 l 665 0 l 665 203 l 347 521 l 29 203 l 29 0 z "},"Y":{"ha":897,"x_min":0,"x_max":0,"o":"m 333 0 l 333 709 l 0 1042 l 29 1042 l 347 724 l 665 1042 l 694 1042 l 362 709 l 362 0 z "},"Z":{"ha":897,"x_min":0,"x_max":0,"o":"m 0 0 l 0 203 l 665 868 l 665 1013 l 0 1013 l 0 1042 l 694 1042 l 694 868 l 29 203 l 29 29 l 694 29 l 694 0 z "},"_":{"ha":897,"x_min":0,"x_max":0,"o":"m 0 0 l 0 29 l 694 29 l 694 0 z "},"a":{"ha":897,"x_min":0,"x_max":0,"o":"m 665 29 l 665 318 l 29 318 l 29 29 z m 0 0 l 0 347 l 665 347 l 665 665 l 0 665 l 0 694 l 694 694 l 694 0 z "},"b":{"ha":897,"x_min":0,"x_max":0,"o":"m 665 29 l 665 665 l 29 665 l 29 29 z m 0 0 l 0 1042 l 29 1042 l 29 694 l 694 694 l 694 0 z "},"c":{"ha":897,"x_min":0,"x_max":0,"o":"m 0 0 l 0 694 l 694 694 l 694 665 l 29 665 l 29 29 l 694 29 l 694 0 z "},"d":{"ha":897,"x_min":0,"x_max":0,"o":"m 665 29 l 665 665 l 29 665 l 29 29 z m 0 0 l 0 694 l 665 694 l 665 1042 l 694 1042 l 694 0 z "},"e":{"ha":897,"x_min":0,"x_max":0,"o":"m 665 376 l 665 665 l 29 665 l 29 376 z m 0 0 l 0 694 l 694 694 l 694 347 l 29 347 l 29 29 l 694 29 l 694 0 z "},"f":{"ha":897,"x_min":0,"x_max":0,"o":"m 318 0 l 318 665 l 0 665 l 0 694 l 318 694 l 318 1042 l 694 1042 l 694 1013 l 347 1013 l 347 694 l 694 694 l 694 665 l 347 665 l 347 0 z "},"g":{"ha":897,"x_min":0,"x_max":0,"o":"m 665 29 l 665 665 l 29 665 l 29 29 z m 0 -347 l 0 -318 l 665 -318 l 665 0 l 0 0 l 0 694 l 694 694 l 694 -347 z "},"h":{"ha":897,"x_min":0,"x_max":0,"o":"m 0 0 l 0 1042 l 29 1042 l 29 694 l 694 694 l 694 0 l 665 0 l 665 665 l 29 665 l 29 0 z "},"i":{"ha":231,"x_min":0,"x_max":0,"o":"m 0 0 l 0 521 l 29 521 l 29 0 z m 0 637 l 0 752 l 29 752 l 29 637 z "},"j":{"ha":521,"x_min":0,"x_max":0,"o":"m -58 -347 l 290 0 l 290 521 l 318 521 l 318 0 l -29 -347 z m 290 637 l 290 752 l 318 752 l 318 637 z "},"k":{"ha":897,"x_min":0,"x_max":0,"o":"m 0 0 l 0 1042 l 29 1042 l 29 376 l 347 376 l 694 724 l 694 694 l 362 362 l 694 29 l 694 0 l 347 347 l 29 347 l 29 0 z "},"l":{"ha":231,"x_min":0,"x_max":0,"o":"m 0 0 l 0 926 l 29 926 l 29 0 z "},"m":{"ha":897,"x_min":0,"x_max":0,"o":"m 0 0 l 0 694 l 694 694 l 694 0 l 665 0 l 665 665 l 362 665 l 362 0 l 333 0 l 333 665 l 29 665 l 29 0 z "},"n":{"ha":897,"x_min":0,"x_max":0,"o":"m 0 0 l 0 694 l 694 694 l 694 0 l 665 0 l 665 665 l 29 665 l 29 0 z "},"o":{"ha":897,"x_min":0,"x_max":0,"o":"m 665 29 l 665 665 l 29 665 l 29 29 z m 0 0 l 0 694 l 694 694 l 694 0 z "},"p":{"ha":897,"x_min":0,"x_max":0,"o":"m 665 29 l 665 665 l 29 665 l 29 29 z m 0 -347 l 0 694 l 694 694 l 694 0 l 29 0 l 29 -347 z "},"q":{"ha":897,"x_min":0,"x_max":0,"o":"m 665 29 l 665 665 l 29 665 l 29 29 z m 665 -347 l 665 0 l 0 0 l 0 694 l 694 694 l 694 -347 z "},"r":{"ha":897,"x_min":0,"x_max":0,"o":"m 0 0 l 0 694 l 694 694 l 694 665 l 29 665 l 29 0 z "},"s":{"ha":897,"x_min":0,"x_max":0,"o":"m 0 0 l 0 29 l 665 29 l 665 347 l 0 347 l 0 694 l 694 694 l 694 665 l 29 665 l 29 376 l 694 376 l 694 0 z "},"t":{"ha":897,"x_min":0,"x_max":0,"o":"m 333 0 l 333 665 l 0 665 l 0 694 l 333 694 l 333 1042 l 362 1042 l 362 694 l 694 694 l 694 665 l 362 665 l 362 0 z "},"u":{"ha":897,"x_min":0,"x_max":0,"o":"m 0 0 l 0 694 l 29 694 l 29 29 l 665 29 l 665 694 l 694 694 l 694 0 z "},"v":{"ha":897,"x_min":0,"x_max":0,"o":"m 347 0 l 0 694 l 29 694 l 347 58 l 665 694 l 694 694 l 347 0 z "},"w":{"ha":897,"x_min":0,"x_max":0,"o":"m 0 0 l 0 694 l 29 694 l 29 29 l 347 347 l 665 29 l 665 694 l 694 694 l 694 0 l 665 0 l 347 318 l 29 0 z "},"x":{"ha":897,"x_min":0,"x_max":0,"o":"m 0 0 l 333 333 l 0 665 l 29 665 l 347 347 l 665 665 l 694 665 l 362 333 l 694 0 l 665 0 l 347 318 l 29 0 z "},"y":{"ha":897,"x_min":0,"x_max":0,"o":"m 0 -347 l 0 -318 l 665 -318 l 665 0 l 0 0 l 0 694 l 29 694 l 29 29 l 665 29 l 665 694 l 694 694 l 694 -347 z "},"z":{"ha":897,"x_min":0,"x_max":0,"o":"m 0 0 l 0 29 l 15 29 l 651 665 l 0 665 l 0 694 l 694 694 l 694 665 l 680 665 l 44 29 l 694 29 l 694 0 z "},"‘":{"ha":231,"x_min":0,"x_max":0,"o":"m 0 926 l 0 1042 l 29 1042 l 29 926 z "},"’":{"ha":578,"x_min":0,"x_max":0,"o":"m 333 955 l 333 1042 l 362 1042 l 362 955 z "},"“":{"ha":434,"x_min":0,"x_max":0,"o":"m 0 926 l 0 1042 l 29 1042 l 29 926 z m 203 926 l 203 1042 l 231 1042 l 231 926 z "},"”":{"ha":434,"x_min":0,"x_max":0,"o":"m 0 926 l 0 1042 l 29 1042 l 29 926 z m 203 926 l 203 1042 l 231 1042 l 231 926 z "}}}
